<?xml version="1.0" encoding="utf-8"?>
<!-- Generator: Adobe Illustrator 23.0.6, SVG Export Plug-In . SVG Version: 6.00 Build 0)  -->
<svg version="1.1" id="Layer_1" xmlns="http://www.w3.org/2000/svg" xmlns:xlink="http://www.w3.org/1999/xlink" x="0px" y="0px"
	 viewBox="0 0 611.2 533.9" style="enable-background:new 0 0 611.2 533.9;" xml:space="preserve">
<style type="text/css">
	.st0{fill:#EFF1F7;}
	.st1{fill:#87A0F9;}
	.st2{fill:#666666;}
	.st3{fill:#FAAEB1;}
	.st4{fill:#3D3D3D;}
	.st5{fill:#FA3E6A;}
	.st6{fill:#FA8AA4;}
	.st7{fill:none;stroke:#FA8AA4;stroke-linecap:round;stroke-linejoin:round;stroke-miterlimit:10;}
	.st8{fill:#ABBEFF;}
	.st9{fill:#0055FE;}
	.st10{fill:#E3E5EB;}
	.st11{fill:#6686F9;}
</style>
<g id="Background">
</g>
<g id="Object">
	<g>
		<path class="st0" d="M22.9,480.6c-0.2,11.6,13.5,17,24.4,19.1c71.6,13.9,143.6,27.8,216.4,28.7c59.6,0.7,119-7.5,178.1-15.6
			c36.1-5,72.3-9.9,108.4-14.9c14.9-2,33.7-8.4,34.2-24.1c0.2-8.9-6.5-16.7-14.3-20.2s-16.5-3.6-25-3.6
			c-139.5-0.5-279.8-5.8-419.1,2.4C107.8,453.5,22.9,450.5,22.9,480.6z"/>
		<g>
			<path class="st1" d="M235.2,335.1l-3.8,143.3l-17.3,1l-10.2-140.1L181.7,481l-18.6-2c3.1-63.1,6.3-126.1,9.4-189.2
				c5.6-0.8,13.6-1.8,23.2-2.2c15.9-0.6,21.7,10.8,29.1,3.8S235.5,328,235.2,335.1z"/>
			<path class="st2" d="M233.3,477.8c2.8,1.4,12.8,8.4,15.6,8.7c2.8,0.3,2.3,4.3-4.1,4c-6.4-0.3-19.1-2.9-25.1-3.5s-9.3,0-7.4-8.5
				L233.3,477.8z"/>
			<path class="st2" d="M184.2,476.5c0,0,6.2,6.2,9.6,7.9c3.5,1.7,5.7,5.8,0,6.1s-12.7-2.5-18.2-2.5s-12.8-0.3-12.5-5.3
				c0.3-5,1.1-9.3,1.1-9.3L184.2,476.5z"/>
			<path class="st3" d="M276.2,247.5c0,0-1-1.4,0-8c1-6.6,1.6-7.3,3.6-7.4c2-0.2,1.1,6.4,2.4,6.3c1.3-0.1,3-8.5,7.2-8.4
				c4.2,0.1,11.2,2.2,9.6,7.5s-7.8,15.9-15.1,16.6l-7-2.6L276.2,247.5z"/>
			<path class="st3" d="M135.9,320.4c0,0,2.2,4.8,2.2,9.1s1.5,7.7-0.5,7.3s-3.3-6.3-4.8-6.7c-1.5-0.4-1,10-5,10.1
				c-4,0.2-16.2-6.5-10.6-14.2c5.6-7.7,8.3-9.8,8.3-9.8l7.7,1.9L135.9,320.4z"/>
			<path class="st4" d="M222.9,187.9c-2.6-12.2,9.3-14.5-1.4-26.4c-10.7-11.9-33.5-11.7-37.7-3.4c0,0-8.5-6.1-17.4,4.5
				c-8.9,10.6,2.8,21-8,30.4s-23.8,22.9-16.7,37.5c7.1,14.6,30.6,24,52.5,21s35.8-13.7,36-31.3S224.7,196.6,222.9,187.9z"/>
			<path class="st3" d="M216.8,178.6c0,0,1.7,11.6,0,21.3s-2.9,11.3-10.2,14.7c-7.4,3.4-11.9,2.8-20.1-5.4
				c-8.1-8.1-7.1-17.1-7.1-20.9s2-19.3,2-19.3l10.1-4.8L216.8,178.6z"/>
			<path class="st3" d="M181.6,187.1c0,0-3.2-6.6-7.4-4.6c-4.2,2-6.6,16.9,7.4,16.9V187.1z"/>
			<g>
				<path class="st4" d="M208.3,197.5c-0.2,0-0.4-0.2-0.5-0.4c-0.1-0.3,0.1-0.5,0.4-0.6c2.3-0.4,2.8-1.6,2.9-2.1
					c-3.5-3.1-3.3-7.8-3.3-8c0-0.3,0.3-0.5,0.5-0.5c0.3,0,0.5,0.3,0.5,0.5c0,0.1-0.2,4.6,3.1,7.4c0.1,0.1,0.2,0.2,0.2,0.4
					C212,194.3,212,196.9,208.3,197.5C208.3,197.5,208.3,197.5,208.3,197.5z"/>
			</g>
			<g>
				<path class="st4" d="M196.3,191.2c-0.3,0-0.5-0.2-0.5-0.5v-5.9c0-0.3,0.2-0.5,0.5-0.5s0.5,0.2,0.5,0.5v5.9
					C196.8,191,196.6,191.2,196.3,191.2z"/>
			</g>
			<g>
				<path class="st4" d="M212.8,191.2C212.7,191.2,212.7,191.2,212.8,191.2c-0.3,0-0.5-0.3-0.5-0.6c0.2-1.6,0-5.5,0-5.5
					c0-0.3,0.2-0.5,0.5-0.5c0.3,0,0.5,0.2,0.5,0.5c0,0.2,0.2,4,0,5.6C213.2,191,213,191.2,212.8,191.2z"/>
			</g>
			<path class="st4" d="M189.4,167.9c0,0,7.8,17.8,27.9,15.9l0.2-10.4l-26.7-11.9l-13.8,6c0,0-1.1,19.5,0.6,20.2
				C179.4,188.4,189.7,180.4,189.4,167.9z"/>
			<polygon class="st3" points="205.2,212.8 204.5,234.9 186.3,234.9 186.3,204.2 			"/>
			<path class="st5" d="M200.4,231.1c0,0-15.2-8.1-15.5-18.6c0,0-4.9,1.8-7.1,9.3c0,0-47.4,34-55.6,91.9c0,0,1.4,6,11.4,6
				c0,0,7.6-20.7,35.7-38c0,0,2.2,13,5.4,15.7c3.2,2.7,41.8,4.3,52.1-2.7c5.1-3.5,0-6.9,5.1-19.6c0,0,5.9,7.3,20.4,7.3
				c14.5,0,31.7-28.7,31.7-28.7s-2-0.4-7.8-6.5c0,0-9.8,7.2-23.9,4.6s-23.2-20.1-39-27.1c0,0-2.3-7.1-9.3-9.4
				C204,215.3,203,227.4,200.4,231.1z"/>
			<g>
				<path class="st6" d="M232.7,276.1c-0.1,0-0.1,0-0.2,0c-0.3-0.1-0.4-0.4-0.3-0.6c3.5-10.2,3.9-15.3-1.4-23.1
					c-5.5-8.3-6.2-10.6-6.2-10.7c-0.1-0.3,0.1-0.5,0.4-0.6s0.5,0.1,0.6,0.4c0,0,0.7,2.4,6.1,10.4c5.8,8.7,4.9,14.3,1.5,24
					C233.1,276,232.9,276.1,232.7,276.1z"/>
			</g>
			<g>
				<path class="st6" d="M184.9,242.7c-0.1,0-0.2,0-0.3-0.1c-0.3-0.2-6.2-5.1-5.7-20.8c0-0.3,0.2-0.5,0.5-0.5c0,0,0,0,0,0
					c0.3,0,0.5,0.2,0.5,0.5c-0.5,13.8,4.2,19,5.1,19.8c1.9-0.4,3.5-2.7,5.2-5.1c1.2-1.8,2.5-3.6,4-4.8c3.2-2.5,6.4-1.5,7.3-1.1
					c1.8-1.1,3.6-1.3,5.3-0.7c4.3,1.6,6.8,8.1,7.6,10.5c2.9-4.1,1.2-10.2-0.7-15.6c-0.1-0.3,0.1-0.6,0.3-0.6s0.6,0.1,0.6,0.3
					c2.1,6,4,12.8-0.1,17.3c-0.1,0.1-0.3,0.2-0.5,0.1c-0.2,0-0.3-0.2-0.4-0.4c0-0.1-2.6-9-7.3-10.8c-1.5-0.6-3-0.3-4.6,0.7
					c-0.1,0.1-0.3,0.1-0.5,0c-0.1-0.1-3.3-1.6-6.5,0.9c-1.4,1.1-2.6,2.9-3.8,4.6C189.2,239.9,187.4,242.5,184.9,242.7
					C184.9,242.7,184.9,242.7,184.9,242.7z"/>
			</g>
			<g>
				<path class="st6" d="M209.2,300.4c-0.2,0-0.4-0.1-0.5-0.4c-0.1-0.3,0.1-0.5,0.3-0.6c2.1-0.6,1.9-3,1.3-7.2
					c-0.4-3-0.9-6.6-0.2-10.3c1.4-8,2.6-14.9-1.3-25.5c-3.8-10.3-7.8-24.9-7.8-25c-0.1-0.3,0.1-0.5,0.4-0.6s0.5,0.1,0.6,0.4
					c0,0.1,4,14.7,7.8,24.9c4,10.8,2.7,17.8,1.3,26c-0.6,3.5-0.2,7,0.2,10c0.5,4.2,1,7.5-2,8.3C209.3,300.4,209.2,300.4,209.2,300.4
					z"/>
			</g>
			<path class="st7" d="M195,254.5c0,0,2,10,2,13.1s-6.4,5.9-8,6.7c-1.6,0.8-8.4-0.8-11-3.7c-2.6-2.9-3.8-13.2-3.8-14.2
				C174.2,255.5,195,254.5,195,254.5z"/>
			<g>
				<path class="st6" d="M171,282.7c-0.3,0-0.5-0.2-0.5-0.5c-0.1-3.2-0.9-8.8-1.6-14.2c-0.7-4.9-1.4-10-1.6-13.4
					c0-0.3,0.2-0.5,0.5-0.5c0.3,0,0.5,0.2,0.5,0.5c0.2,3.4,0.9,8.5,1.6,13.4c0.7,5.4,1.5,11,1.6,14.3
					C171.5,282.5,171.3,282.7,171,282.7C171,282.7,171,282.7,171,282.7z"/>
			</g>
			<path class="st5" d="M208.3,200.5c0,0-3.5-0.8-10.9-0.7c0,0-1.9,10.9,3.9,11.4C207.1,211.8,208.3,200.5,208.3,200.5z"/>
			<g>
				<path class="st8" d="M199.9,305.1c-1.4,0-2.9,0-4.4-0.1c-10.5-0.3-19.1-1.7-19.2-1.7c-0.3,0-0.5-0.3-0.4-0.6
					c0-0.3,0.3-0.5,0.6-0.4c0.3,0.1,34.4,5.4,49.9-2.9c0.2-0.1,0.5,0,0.7,0.2c0.1,0.2,0,0.5-0.2,0.7
					C220.8,303.5,211.8,305.1,199.9,305.1z"/>
			</g>
			<g>
				<path class="st8" d="M209.2,327.3h-4.5c-0.1,0-0.3,0-0.4-0.1c-0.1-0.1-0.1-0.2-0.1-0.4l0.7-22.2c0-0.3,0.2-0.5,0.5-0.5
					c0.3,0,0.5,0.2,0.5,0.5l-0.6,21.7h3.5l0.8-22.2c0-0.3,0.2-0.5,0.5-0.5c0.3,0,0.5,0.2,0.5,0.5l-0.8,22.7
					C209.7,327.1,209.5,327.3,209.2,327.3z"/>
			</g>
			<g>
				<path class="st8" d="M172.8,321.6c-0.2,0-0.4-0.1-0.4-0.3c-0.1-0.3,0-0.5,0.2-0.7c0.1-0.1,15.2-7.8,16-16.1
					c0-0.3,0.3-0.5,0.5-0.5c0.3,0,0.5,0.3,0.4,0.5c-0.8,8.9-15.9,16.6-16.5,17C172.9,321.6,172.8,321.6,172.8,321.6z"/>
			</g>
			<g>
				<path class="st8" d="M229,316.7c0,0-0.1,0-0.1,0c-8.6-2-8.8-14-8.8-14.5c0-0.3,0.2-0.5,0.5-0.5l0,0c0.3,0,0.5,0.2,0.5,0.5
					c0,0.1,0.2,11.7,8.1,13.5c0.3,0.1,0.4,0.3,0.4,0.6C229.4,316.6,229.2,316.7,229,316.7z"/>
			</g>
		</g>
		<g>
			<rect x="363.5" y="185.5" class="st2" width="3.4" height="22"/>
			<rect x="420.1" y="185.5" class="st2" width="3.4" height="22"/>
			<g>
				<path class="st2" d="M359.3,299c-2.3-0.7-4.7,0.5-5.5,2.8c-5.3,16.1-23.3,58.3-44.2,66.4c0.9,2.6,2.5,5.2,3.6,7.9
					c28.8-11.8,48-69,48.8-71.5C362.8,302.1,361.5,299.7,359.3,299z"/>
			</g>
			<g>
				<path class="st1" d="M300.9,389.7l-3.6-7.6l9.2-4.4c0.9-0.4,1.5-1.1,1.9-2.1c0.3-0.9,0.3-1.9-0.1-2.8c-0.4-0.9-1.1-1.5-2.1-1.9
					c-0.9-0.3-1.9-0.3-2.8,0.1l-9.2,4.4l-3.6-7.6l9.2-4.4c2.9-1.4,6.2-1.5,9.2-0.5c3,1.1,5.4,3.3,6.8,6.2c1.4,2.9,1.5,6.2,0.5,9.2
					c-1.1,3-3.3,5.4-6.2,6.8L300.9,389.7z"/>
			</g>
			<path class="st2" d="M379,473.4c0-5.1-1.9-9.7-5-12.9v-4.3h-9.6c-8.1,0-14.6,7.7-14.6,17.2s6.5,17.2,14.6,17.2h9.6v-4.3
				C377.1,483.1,379,478.5,379,473.4z"/>
			<ellipse class="st4" cx="374.1" cy="473.4" rx="14.6" ry="17.2"/>
			<path class="st2" d="M437,473.4c0-5.1-1.9-9.7-5-12.9v-4.3h-9.6c-8.1,0-14.6,7.7-14.6,17.2s6.5,17.2,14.6,17.2h9.6v-4.3
				C435.1,483.1,437,478.5,437,473.4z"/>
			<ellipse class="st4" cx="432" cy="473.4" rx="14.6" ry="17.2"/>
			<path class="st9" d="M337.4,252.8h9.4v-30.9h-9.4c-8.5,0-15.5,6.9-15.5,15.4l0,0C322,245.9,328.9,252.8,337.4,252.8z"/>
			<path class="st1" d="M429,203.1h-63.6c-17.1,0-31,13.9-31,31v6.5c0,17.1,13.9,31,31,31H429c18.9,0,34.3-15.3,34.3-34.3l0,0
				C463.2,218.4,447.9,203.1,429,203.1z"/>
			<path class="st9" d="M449.3,252.8h13.5c8.5,0,15.5-6.9,15.5-15.4l0,0c0-8.5-6.9-15.4-15.5-15.4h-13.5c-4.7,0-8.5,3.8-8.5,8.5v14
				C440.8,249,444.6,252.8,449.3,252.8z"/>
			<path class="st10" d="M415.6,242.2h-54c-7.1,0-12.9-5.8-12.9-12.9l0,0c0-7.1,5.8-12.9,12.9-12.9h54c7.1,0,12.9,5.8,12.9,12.9l0,0
				C428.5,236.5,422.7,242.2,415.6,242.2z"/>
			<circle class="st4" cx="362.6" cy="229.4" r="9.8"/>
			<circle class="st2" cx="360.3" cy="227" r="3.7"/>
			<circle class="st4" cx="415.6" cy="229.4" r="9.8"/>
			<path class="st9" d="M769.6,274.3L769.6,274.3c-7.9,0-14.3-6.4-14.3-14.3v-3.5c0-1.2,0.9-2.1,2.1-2.1h24.5c1.2,0,2.1,0.9,2.1,2.1
				v3.5C783.9,267.9,777.5,274.3,769.6,274.3z"/>
			<rect x="377.4" y="271.6" class="st2" width="28.4" height="14.8"/>
			<path class="st1" d="M436.3,285.7h-70.9c-6.4,0-11.8,4.8-12.5,11.1L335,452.6c-1.3,11,7.4,20.8,18.5,20.8h93.3
				c11.1,0,19.8-9.7,18.5-20.8l-18.1-157.2C446.6,289.9,441.9,285.7,436.3,285.7z"/>
			<path class="st9" d="M465.3,452.6l-18.1-157.2c-0.6-5.5-5.3-9.7-10.9-9.7c-4,0-7.2,3-7.6,6.9l-15,161.2
				c-1,10.5,7.3,19.5,17.7,19.5h15.3C457.9,473.4,466.6,463.6,465.3,452.6z"/>
			<path class="st10" d="M357,377.7h52c2.1,0,3.9-1.6,4.1-3.7l6.8-68.9c0.2-2.4-1.7-4.5-4.1-4.5h-52c-2.1,0-3.9,1.6-4.1,3.7
				l-6.8,68.9C352.7,375.6,354.6,377.7,357,377.7z"/>
			<g>
				<path class="st2" d="M462.5,333.9c-9.4-17-21.1-28.4-21.6-28.9c-1.7-1.7-4.5-1.6-6.1,0.1c-1.7,1.7-1.6,4.5,0.1,6.1
					c0.4,0.4,41.2,40.5,28,79.6c2.8,0.4,5.5,1.6,8.1,3.1C477.2,375.9,474.3,355.2,462.5,333.9z"/>
			</g>
			<g>
				<path class="st1" d="M469.9,414.8l-7.6-3.6l4.4-9.2c0.9-1.8,0.1-4-1.7-4.8c-1.8-0.9-4-0.1-4.8,1.7l-4.4,9.2l-7.6-3.6l4.4-9.2
					c1.4-2.9,3.8-5.1,6.8-6.2c3-1.1,6.3-0.9,9.2,0.4c6,2.8,8.6,10,5.7,16L469.9,414.8z"/>
			</g>
			<polygon class="st11" points="355,445.4 351.1,445.4 356.5,392.7 360.4,392.7 			"/>
			<path class="st9" d="M363.3,416.9h-14.4c-1,0-1.9-0.8-1.9-1.9v-3.2c0-1,0.8-1.9,1.9-1.9h14.4c1,0,1.9,0.8,1.9,1.9v3.2
				C365.2,416,364.4,416.9,363.3,416.9z"/>
			<circle class="st5" cx="380.7" cy="398.6" r="5.9"/>
			<circle class="st6" cx="400.8" cy="398.6" r="5.9"/>
			<ellipse class="st11" cx="388.7" cy="428.7" rx="16.7" ry="16.7"/>
			<g>
				<path class="st9" d="M388.5,355.9C388.4,355.9,388.4,355.9,388.5,355.9c-0.5,0-0.9-0.4-1-0.8l-3-17.6l-2.5-2.3
					c-0.2-0.1-0.3-0.4-0.3-0.6l-1.4-8.2l-4,22c-0.1,0.5-0.5,0.8-1,0.8c-0.5,0-0.9-0.3-1-0.8l-3.5-14.9l-2.4,4.9
					c-0.2,0.3-0.5,0.5-0.9,0.5h-11.1c-0.5,0-1-0.5-1-1s0.5-1,1-1h10.4l3.4-6.8c0.2-0.4,0.6-0.6,1-0.5c0.4,0,0.8,0.4,0.9,0.8l3,12.9
					l4.1-22.8c0.1-0.5,0.5-0.8,1-0.8l0,0c0.5,0,0.9,0.4,1,0.8l2.3,13.4l2.5,2.3c0.2,0.1,0.3,0.4,0.3,0.6l2.1,12.7l4.8-23.3
					c0.1-0.5,0.5-0.8,1-0.8h0c0.5,0,0.9,0.3,1,0.8l3.2,14.5l1.4-3.2c0.2-0.4,0.5-0.6,0.9-0.6h15.9c0.5,0,1,0.5,1,1s-0.5,1-1,1h-15.2
					l-2.4,5.5c-0.2,0.4-0.6,0.6-1,0.6c-0.4,0-0.8-0.4-0.9-0.8l-2.9-13l-4.9,24C389.3,355.6,388.9,355.9,388.5,355.9z"/>
			</g>
			<circle class="st5" cx="365.2" cy="179.6" r="9.4"/>
			<circle class="st5" cx="421.8" cy="179.6" r="9.4"/>
			<circle class="st2" cx="412.9" cy="227" r="3.7"/>
			<rect x="369.2" y="248.8" class="st9" width="40.6" height="13.9"/>
		</g>
		<path class="st6" d="M247.1,169.4c9.9,16.2,63.5,9.5,63.5,9.5s5.2,11.2,21.1,12.2c0,0-6.8-5.8-6.5-12.9c0,0,13.7,0,19.6-5.4
			c5.9-5.4,6.3-45.9,0-64.2s-75.4-27.2-85.7-26.8s-15.8,13.6-15.8,39.1S242.3,161.6,247.1,169.4z"/>
		<path class="st5" d="M458.1,40.9c-17.7-0.7-83.5-0.5-95.4,10.5c-11.7,10.8-44.2,73.9-1.6,84c19,4.5,44.8,7.8,67.5,7.9
			c0.1,5.8-0.9,12.7-5.4,17.9c0,0,18.7-0.3,25.9-18.7c18.2-1.8,31.2-6.5,31.3-15.7C480.6,104.6,475.7,41.5,458.1,40.9z"/>
		<path class="st9" d="M544.9,118.4c-6.9-4.7-75.4-2.8-84.6,8c-9.5,11.2-11.6,57.2-3.7,65.1c5.3,5.3,35.2,5.4,60.4,3.6
			c-0.5,3.8-2.3,8.5-7.4,12.5c0,0,18.8,5.6,26.6-14.3c4.3-0.5,8-1.1,10.8-1.7C567.1,187.3,551.8,123.1,544.9,118.4z"/>
		<path class="st5" d="M134.3,176.7c0,0-13.5,4.3-26.7,0c0,0-28.5,5.2-59.4,2.2C17.2,175.8,14,172,8,136.7s-7.6-58,16.8-61.3
			s72.3,3.8,80.4,5.4s15.7,13.8,15.9,39.6s-5.3,43.3-5.3,43.3S122.6,170.9,134.3,176.7z"/>
		<path class="st9" d="M285.3,19.9c8.4,7.5,11.6,94.8-3.4,106.3c-15,11.6-77.8-3.5-77.8-3.5s-3.6,14.4-22.7,16.8
			c0,0,3-13.3,1.5-20.8c0,0-10.2-2.3-15.9-7.5s-19.1-96.5,0-102.8C186,2,266.8,3.2,285.3,19.9z"/>
	</g>
</g>
</svg>
